<?xml version="1.0" standalone="no"?>
<!DOCTYPE svg PUBLIC "-//W3C//DTD SVG 20010904//EN"
 "http://www.w3.org/TR/2001/REC-SVG-20010904/DTD/svg10.dtd">
<svg version="1.0" xmlns="http://www.w3.org/2000/svg"
 width="900.000000pt" height="900.000000pt" viewBox="0 0 900.000000 900.000000"
 preserveAspectRatio="xMidYMid meet">
<metadata>
Created by potrace 1.14, written by Peter Selinger 2001-2017
</metadata>
<g transform="translate(0.000000,900.000000) scale(0.100000,-0.100000)"
fill="#000000" stroke="none">
<path d="M2389 6402 c-18 -13 -19 -54 -19 -1222 0 -956 -3 -1210 -12 -1217
-19 -12 -256 -18 -308 -8 -53 10 -172 56 -225 88 -69 41 -145 146 -175 240
-49 159 -38 373 26 505 31 62 128 172 154 172 10 0 23 7 30 15 22 27 122 47
247 49 45 1 85 5 89 9 11 11 8 224 -12 762 -3 94 -7 216 -8 272 -1 57 -6 106
-10 110 -4 5 -205 8 -445 8 -349 0 -443 -3 -462 -13 -13 -8 -55 -54 -94 -104
-38 -49 -77 -98 -85 -108 -43 -55 -55 -71 -125 -178 -30 -46 -55 -87 -55 -90
0 -4 -14 -27 -30 -52 -17 -25 -40 -65 -51 -90 -12 -25 -34 -70 -49 -100 -16
-30 -38 -82 -50 -115 -12 -33 -27 -71 -35 -85 -7 -14 -14 -28 -14 -32 -1 -4
-3 -13 -5 -20 -50 -158 -73 -247 -80 -299 -3 -19 -9 -63 -15 -99 -6 -36 -11
-83 -11 -105 0 -71 5 -69 -232 -75 l-213 -5 0 -75 c1 -72 9 -164 19 -212 3
-13 7 -36 10 -53 12 -79 29 -156 48 -220 36 -125 107 -326 132 -374 13 -25 29
-59 37 -76 35 -75 176 -306 198 -325 4 -3 33 -41 66 -85 33 -44 74 -94 90
-110 17 -17 46 -50 65 -74 49 -61 130 -138 188 -177 74 -49 136 -63 322 -68
91 -3 212 -8 270 -11 58 -3 166 -7 240 -10 74 -3 191 -8 260 -11 69 -3 159 -7
200 -8 116 -5 115 -4 110 -133 -1 -35 2 -42 22 -49 27 -8 1027 -9 1035 0 3 3
7 49 9 102 3 103 16 134 57 134 11 0 52 12 91 26 39 14 116 39 171 54 55 16
114 33 130 39 131 46 306 102 324 104 33 2 36 38 8 98 -45 100 -69 154 -107
239 -55 124 -88 196 -126 277 -19 39 -34 74 -34 77 0 4 -10 28 -21 54 -12 26
-31 67 -41 92 -11 25 -30 68 -43 95 -12 28 -40 91 -60 140 -34 79 -109 250
-151 342 -8 17 -14 34 -14 37 0 3 -19 45 -42 93 -23 49 -43 90 -44 93 0 3 -13
32 -29 65 -50 108 -68 173 -67 235 2 71 2 159 1 167 -11 66 24 63 45 -4 9 -29
21 -53 26 -53 5 0 12 -10 16 -22 4 -13 17 -45 29 -73 12 -27 39 -90 60 -140
21 -49 43 -103 50 -120 38 -88 134 -303 175 -390 26 -55 51 -111 55 -125 7
-24 19 -52 87 -200 16 -36 38 -84 49 -107 10 -24 28 -62 38 -85 11 -24 30 -65
41 -93 36 -81 47 -106 80 -180 18 -38 43 -97 57 -130 14 -33 42 -96 63 -140
21 -44 41 -92 45 -107 13 -52 71 -87 101 -59 8 7 203 72 404 133 36 11 74 23
85 28 11 5 36 12 55 16 19 3 37 10 40 15 3 4 21 11 40 14 71 12 240 73 240 86
0 14 -30 91 -51 131 -11 21 -20 40 -20 43 0 2 -20 48 -44 101 -25 53 -45 99
-45 101 0 3 -15 37 -34 76 -48 104 -76 166 -76 171 0 3 -13 33 -29 68 -16 35
-45 101 -66 148 -20 47 -41 89 -46 95 -5 5 -9 15 -9 22 0 7 -20 55 -44 105
-24 51 -69 154 -101 228 -63 148 -76 179 -128 290 -19 41 -41 91 -48 110 -7
19 -32 78 -57 130 -24 52 -50 111 -58 130 -17 39 -36 82 -81 180 -17 36 -40
89 -52 117 -12 29 -41 95 -66 147 -24 52 -47 105 -50 118 -4 13 -18 40 -33 62
-30 42 -12 35 -302 126 -91 29 -217 70 -280 92 -63 22 -122 41 -130 42 -26 5
-37 44 -33 115 3 48 0 71 -10 79 -21 18 -1014 21 -1038 4z"/>
<path d="M4376 5884 c-3 -9 3 -28 13 -43 11 -15 23 -40 27 -57 3 -16 15 -45
25 -64 9 -19 35 -75 57 -125 22 -49 52 -116 66 -148 14 -32 26 -60 26 -62 0
-6 41 -96 100 -220 26 -55 50 -113 54 -129 4 -16 16 -41 27 -54 10 -14 19 -30
19 -38 0 -7 7 -25 15 -41 8 -15 22 -46 31 -68 9 -22 23 -56 32 -75 9 -19 17
-39 18 -45 1 -5 31 -72 68 -148 36 -76 66 -140 66 -143 0 -3 15 -37 33 -77 19
-40 39 -88 47 -107 7 -19 24 -60 38 -90 45 -98 113 -255 115 -265 1 -5 5 -12
8 -15 3 -3 34 -70 68 -150 35 -80 76 -173 92 -206 16 -34 29 -67 29 -73 0 -21
43 -29 80 -16 19 7 69 23 110 36 105 31 184 57 212 68 28 11 127 42 150 46 9
2 61 18 115 36 273 89 274 90 244 148 -11 20 -43 90 -71 156 -58 133 -117 266
-162 365 -38 83 -68 150 -78 175 -4 11 -20 46 -34 78 -14 32 -26 61 -26 65 0
4 -13 32 -28 62 -16 30 -41 86 -56 124 -15 38 -42 101 -60 140 -19 39 -46 100
-61 136 -39 94 -184 415 -204 450 -4 8 -21 19 -37 24 -16 5 -38 12 -49 17 -46
18 -200 69 -211 69 -7 0 -25 5 -41 12 -15 6 -35 13 -43 14 -8 1 -138 43 -289
93 -151 50 -285 91 -298 91 -13 0 -23 4 -23 9 0 7 -174 61 -199 61 -5 0 -12
-7 -15 -16z"/>
<path d="M5793 5453 c-20 -7 -16 -26 30 -125 24 -51 52 -115 62 -143 11 -27
22 -52 25 -55 5 -5 54 -119 74 -176 7 -18 16 -38 22 -45 6 -8 19 -34 29 -59
10 -25 36 -82 57 -128 21 -46 38 -85 38 -88 0 -3 9 -26 21 -52 56 -126 72
-161 95 -207 13 -28 24 -54 24 -58 0 -4 27 -65 60 -134 33 -69 60 -129 60
-134 0 -5 4 -17 10 -27 5 -9 20 -42 33 -72 13 -30 37 -85 53 -123 15 -37 36
-70 46 -73 18 -5 216 51 325 92 33 13 101 35 150 48 181 50 248 77 248 101 0
21 -74 197 -174 414 -34 72 -61 134 -61 137 0 3 -24 58 -54 122 -30 64 -66
146 -81 182 -15 36 -42 97 -60 135 -18 39 -38 87 -46 108 -17 49 -19 50 -114
80 -44 14 -93 31 -110 36 -44 15 -225 73 -345 111 -58 18 -127 41 -155 51 -27
10 -74 24 -102 30 -29 6 -53 15 -53 20 0 5 -11 9 -25 9 -14 0 -36 6 -48 14
-12 7 -28 12 -34 9z"/>
<path d="M6965 5064 c-10 -10 -12 -21 -6 -32 5 -9 20 -43 35 -74 14 -32 37
-82 51 -112 14 -30 25 -57 25 -61 0 -3 15 -38 34 -78 18 -40 66 -146 106 -237
66 -152 106 -241 167 -377 13 -28 27 -55 33 -58 11 -7 112 20 250 65 47 15
119 37 160 50 123 37 162 53 167 67 3 8 -3 33 -12 56 -45 103 -60 136 -91 201
-19 38 -34 73 -34 77 0 4 -22 54 -49 111 -27 57 -53 115 -56 131 -4 15 -15 32
-25 37 -34 18 -277 101 -310 105 -14 2 -63 18 -110 35 -47 18 -92 33 -100 35
-55 13 -166 48 -175 54 -23 18 -45 19 -60 5z"/>
<path d="M7925 4760 c-8 -13 15 -88 32 -101 7 -6 13 -18 13 -26 0 -8 17 -52
38 -96 22 -45 53 -118 71 -162 18 -44 36 -87 41 -95 16 -31 66 -21 305 60 44
15 109 36 145 46 36 10 83 25 105 34 22 10 57 20 77 24 21 4 40 11 44 17 10
16 -24 46 -59 52 -18 3 -70 19 -117 36 -47 16 -93 30 -102 31 -10 0 -46 11
-80 24 -35 13 -97 34 -138 46 -41 12 -80 26 -86 31 -6 5 -27 11 -48 15 -37 5
-51 10 -166 53 -63 24 -67 25 -75 11z"/>
</g>
</svg>
